<svg xmlns="http://www.w3.org/2000/svg" xmlns:xlink="http://www.w3.org/1999/xlink" width="1080" zoomAndPan="magnify" viewBox="0 0 810 809.999993" height="1080" preserveAspectRatio="xMidYMid meet" version="1.0"><path fill="#ff5757" d="M 459.960938 629.625 C 459.960938 629.625 375.554688 749.90625 316.507812 781.234375 C 140.566406 857.144531 81.199219 663.109375 134.539062 468.109375 C 187.5625 274.269531 359.363281 260.421875 396.34375 258.003906 C 542.0625 248.484375 650.453125 352.695312 654.050781 369.285156 C 635.992188 358.871094 597.027344 341.136719 528.296875 330.75 C 493.050781 326.234375 402.667969 323.070312 402.667969 323.070312 L 401.65625 352.429688 C 384.828125 353.613281 374.652344 354.699219 374.652344 354.699219 C 374.652344 354.699219 372.59375 504.117188 372.125 538.144531 C 437.515625 586.644531 459.960938 629.625 459.960938 629.625 Z M 505.703125 674 C 523.878906 718.882812 617.894531 790.546875 700.921875 731.53125 C 775.9375 678.214844 705.78125 471.273438 705.78125 471.273438 C 705.78125 471.273438 477.648438 604.71875 505.703125 674 Z M 505.703125 674 " fill-opacity="1" fill-rule="nonzero"/><path fill="#101011" d="M 540.503906 185.191406 C 538.554688 179.730469 503.804688 163.277344 475.449219 150.625 L 475.449219 109.339844 C 486.1875 106.355469 530.449219 90.808594 532.085938 37.144531 C 532.089844 37.027344 532.085938 36.910156 532.078125 36.796875 C 531.589844 31.46875 528.175781 27.820312 523.15625 27.277344 C 520.628906 27.003906 517.671875 27.640625 515.144531 29.210938 C 514.214844 18.863281 510.648438 12.605469 504.5 10.570312 C 495.738281 7.671875 484.59375 15.039062 477.460938 24.234375 C 463.867188 20.382812 386.285156 0.0078125 329.453125 18.953125 C 270.746094 38.519531 292.632812 121.285156 296.140625 133.242188 C 290.085938 141.84375 288.785156 153.539062 291.753906 163.160156 C 295.421875 175.039062 306.199219 186.324219 325.597656 183.984375 C 325.125 211.167969 325.664062 277.511719 325.671875 278.210938 C 325.675781 279.03125 326.03125 279.808594 326.648438 280.351562 C 327.515625 281.117188 348.59375 299.148438 404.476562 299.148438 C 461.003906 299.148438 474.570312 274.550781 475.117188 273.503906 C 475.335938 273.089844 475.449219 272.628906 475.449219 272.160156 L 475.449219 187.703125 C 481.710938 188.335938 489.074219 189.035156 496.488281 189.640625 C 510.523438 190.789062 519.886719 191.21875 526.195312 191.214844 C 537.878906 191.214844 539.054688 189.742188 539.933594 188.636719 C 540.710938 187.65625 540.925781 186.371094 540.503906 185.191406 Z M 472.605469 181.628906 C 472.589844 181.628906 472.578125 181.621094 472.5625 181.621094 C 472.558594 181.621094 472.554688 181.621094 472.550781 181.621094 C 468.035156 181.152344 463.507812 180.652344 459.039062 180.132812 C 457.476562 179.953125 456.023438 181.082031 455.835938 182.664062 C 455.652344 184.25 456.789062 185.683594 458.371094 185.867188 C 458.460938 185.878906 462.941406 186.398438 469.675781 187.105469 L 469.675781 206.363281 C 461.296875 209.609375 423.429688 222.035156 403.917969 190.515625 C 403.078125 189.164062 401.300781 188.746094 399.945312 189.582031 C 398.585938 190.421875 398.167969 192.199219 399.007812 193.558594 C 410.605469 212.285156 427.808594 217.25 442.789062 217.25 C 454.195312 217.25 464.300781 214.375 469.675781 212.503906 L 469.675781 271.355469 C 467.414062 274.78125 452.90625 293.375 404.476562 293.375 C 357.484375 293.375 336.039062 280.066406 331.433594 276.761719 C 331.355469 266.507812 330.894531 203.144531 331.445312 180.660156 C 331.464844 179.785156 331.089844 178.949219 330.417969 178.382812 C 329.75 177.820312 328.863281 177.589844 328 177.757812 C 312.835938 180.738281 301.34375 174.644531 297.273438 161.457031 C 293.664062 149.765625 297.480469 134.4375 310.113281 129.023438 C 317.058594 126.046875 322.84375 125.605469 327.316406 127.714844 C 332.976562 130.386719 334.800781 136.441406 334.816406 136.488281 C 334.910156 136.828125 335.066406 137.144531 335.277344 137.425781 C 335.726562 138.035156 346.492188 152.3125 359.9375 149.214844 C 377.535156 145.152344 378.351562 118.597656 377.980469 108.226562 C 388.597656 110.730469 420.042969 116.332031 469.675781 110.335938 L 469.675781 148.058594 C 466.234375 146.539062 462.929688 145.089844 459.859375 143.753906 C 458.398438 143.117188 456.695312 143.789062 456.058594 145.25 C 455.421875 146.710938 456.089844 148.410156 457.550781 149.046875 C 462.125 151.039062 466.75 153.078125 471.339844 155.132812 C 471.40625 155.160156 471.464844 155.191406 471.53125 155.21875 C 498.488281 167.273438 524.304688 179.753906 532.613281 185.296875 C 523.464844 186.066406 498.339844 184.316406 472.605469 181.628906 Z M 425.128906 147.273438 C 422.21875 146.265625 419.042969 147.800781 418.035156 150.710938 C 417.023438 153.617188 418.5625 156.792969 421.46875 157.800781 C 424.375 158.8125 427.550781 157.273438 428.5625 154.367188 C 429.574219 151.460938 428.035156 148.285156 425.128906 147.273438 Z M 520.980469 498.453125 C 518.125 494.949219 513.472656 493.320312 506.796875 493.46875 C 507.101562 487.519531 505.554688 483.222656 502.179688 480.671875 C 497.457031 477.101562 490.667969 478.199219 486.320312 479.492188 C 486.015625 476.722656 485.003906 473.21875 482.132812 470.457031 C 477.75 466.238281 470.578125 465.15625 460.8125 467.246094 C 435.34375 472.703125 371.847656 532.722656 367.53125 536.824219 C 364.683594 538.886719 325.894531 567.101562 279.816406 605.214844 C 280.15625 586.734375 281.191406 530.890625 282.113281 487.449219 C 282.144531 485.855469 280.882812 484.539062 279.289062 484.503906 C 277.714844 484.546875 276.375 485.734375 276.339844 487.328125 C 275.304688 536.03125 274.128906 600.339844 273.953125 610.089844 C 253.695312 626.992188 232.300781 645.617188 212.09375 664.671875 C 210.933594 665.765625 210.878906 667.589844 211.972656 668.75 C 212.542969 669.351562 213.308594 669.65625 214.074219 669.65625 C 214.785156 669.65625 215.5 669.394531 216.054688 668.871094 C 285.933594 602.988281 370.226562 542 371.070312 541.390625 C 371.175781 541.3125 371.277344 541.230469 371.371094 541.140625 C 372.03125 540.507812 437.796875 478.082031 462.019531 472.894531 C 469.660156 471.253906 475.21875 471.84375 478.101562 474.589844 C 480.414062 476.792969 480.691406 480.042969 480.652344 481.828125 C 475.90625 484.464844 460.527344 493.84375 448.230469 510.847656 C 447.296875 512.140625 447.585938 513.945312 448.878906 514.878906 C 449.390625 515.25 449.980469 515.425781 450.570312 515.425781 C 451.464844 515.425781 452.347656 515.011719 452.910156 514.230469 C 466.171875 495.894531 483.71875 486.710938 484.621094 486.246094 C 487.140625 485.113281 495.0625 482.523438 498.703125 485.28125 C 501.246094 487.210938 501.296875 491.675781 500.820312 495.363281 C 498.078125 498.628906 484.558594 514.605469 472.585938 527.113281 C 471.484375 528.261719 471.523438 530.089844 472.675781 531.195312 C 473.234375 531.726562 473.953125 531.996094 474.671875 531.996094 C 475.433594 531.996094 476.191406 531.695312 476.757812 531.105469 C 488.496094 518.847656 501.699219 503.28125 505.003906 499.359375 C 510.765625 498.917969 514.648438 499.820312 516.503906 502.101562 C 518.796875 504.910156 518.597656 510.40625 515.902344 518.898438 C 511.59375 532.480469 471.003906 605.660156 456.914062 624.234375 C 457.273438 625.5 458.929688 628.0625 459.960938 629.625 C 473.914062 612.578125 516.449219 536.269531 521.40625 520.644531 C 523.710938 513.382812 525.746094 504.296875 520.980469 498.453125 Z M 520.980469 498.453125 " fill-opacity="1" fill-rule="nonzero"/><path fill="#2e3192" d="M 594.328125 345.144531 L 567.996094 240.84375 C 569.503906 239.878906 571.917969 238.910156 575.367188 239.054688 L 602.523438 346.609375 L 608.359375 347.652344 L 574.546875 213.632812 C 573.113281 207.902344 567.9375 204.242188 563.007812 205.476562 C 558.085938 206.710938 555.242188 212.378906 556.679688 218.105469 L 588.464844 344.097656 Z M 564.746094 227.992188 C 568.234375 225.230469 570.863281 225.640625 572.09375 226.113281 L 573.945312 233.4375 C 572.25 233.398438 569.679688 233.792969 566.714844 235.777344 Z M 564.746094 227.992188 " fill-opacity="1" fill-rule="nonzero"/><path fill="#101011" d="M 732.890625 271.664062 C 731.769531 271.132812 730.433594 271.378906 729.570312 272.273438 C 729.390625 272.460938 721.804688 280.394531 710.578125 293.234375 L 712.230469 276.359375 C 712.34375 275.21875 711.769531 274.121094 710.769531 273.558594 C 709.765625 273 708.53125 273.082031 707.617188 273.777344 C 705.851562 275.113281 665.195312 306.449219 652.027344 365.910156 C 636.359375 355.019531 570.390625 317.925781 401.71875 320.636719 C 400.945312 320.648438 400.210938 320.96875 399.679688 321.527344 C 399.144531 322.082031 398.859375 322.832031 398.878906 323.601562 C 399.097656 331.492188 399.074219 340.796875 399.007812 347.484375 C 389.164062 348.644531 380.644531 350.113281 373.90625 351.910156 C 372.65625 352.242188 371.78125 353.367188 371.765625 354.660156 L 369.378906 539.035156 C 376.613281 531.933594 403.515625 505.824219 418.035156 495.972656 C 434.90625 484.527344 471.660156 454.273438 484.3125 481.515625 C 491.195312 478.460938 508.070312 476.996094 503.574219 497.78125 C 509.316406 495.371094 525.792969 497.445312 520.464844 509.226562 C 515.132812 521.011719 515.042969 529.710938 506.304688 545.675781 C 498.210938 560.464844 474.613281 607.800781 458.726562 627.386719 C 460.3125 630.207031 459.960938 629.625 459.960938 629.625 L 418.992188 685.320312 C 474.25 685.933594 540.71875 696.289062 618.675781 708.070312 C 618.816406 708.089844 618.945312 708.109375 619.078125 708.132812 C 619.152344 708.144531 619.210938 708.1875 619.285156 708.195312 C 619.386719 708.207031 619.484375 708.210938 619.578125 708.210938 C 619.582031 708.210938 619.582031 708.214844 619.582031 708.214844 C 619.582031 708.214844 619.582031 708.210938 619.582031 708.210938 C 619.585938 708.210938 619.585938 708.214844 619.585938 708.214844 C 619.589844 708.214844 619.59375 708.210938 619.597656 708.210938 C 619.914062 708.210938 620.21875 708.140625 620.511719 708.039062 C 620.597656 708.007812 620.679688 707.972656 620.761719 707.933594 C 620.980469 707.835938 621.183594 707.710938 621.375 707.558594 C 621.433594 707.511719 621.496094 707.476562 621.550781 707.421875 C 621.761719 707.226562 621.949219 707.003906 622.097656 706.746094 C 661.273438 637.304688 694.792969 595.285156 695.128906 594.867188 C 695.464844 594.449219 695.679688 593.941406 695.742188 593.410156 L 734.519531 274.621094 C 734.667969 273.386719 734.011719 272.195312 732.890625 271.664062 Z M 404.789062 346.859375 C 404.839844 341.003906 404.863281 333.355469 404.722656 326.363281 C 526.515625 324.726562 593.988281 344.585938 626.605469 358.941406 C 569.441406 345.449219 465.554688 340.757812 404.789062 346.859375 Z M 704.035156 300.800781 C 691.308594 315.683594 675.484375 335.175781 660.527344 356.28125 C 672.011719 317.738281 695.292969 292.730469 705.78125 282.992188 Z M 704.035156 300.800781 " fill-opacity="1" fill-rule="nonzero"/><path fill="#f2f2f2" d="M 517.339844 387.058594 C 511.167969 386.742188 505.980469 393.386719 505.527344 402.183594 C 505.074219 410.980469 509.554688 418.121094 515.726562 418.441406 C 521.898438 418.757812 527.089844 412.113281 527.542969 403.316406 C 527.996094 394.519531 523.511719 387.378906 517.339844 387.058594 Z M 516.023438 412.675781 C 513.550781 412.546875 511 408.160156 511.292969 402.480469 C 511.585938 396.800781 514.570312 392.699219 517.042969 392.824219 C 519.519531 392.953125 522.066406 397.339844 521.773438 403.019531 C 521.480469 408.699219 518.496094 412.800781 516.023438 412.675781 Z M 421.632812 411.46875 C 421.632812 411.46875 421.625 411.46875 421.625 411.46875 L 412.152344 411.15625 L 413.46875 389.472656 C 413.566406 387.882812 412.351562 386.515625 410.761719 386.417969 C 410.738281 386.417969 410.710938 386.414062 410.6875 386.414062 C 409.128906 386.359375 407.796875 387.554688 407.703125 389.125 L 406.207031 413.769531 C 406.160156 414.546875 406.429688 415.3125 406.953125 415.886719 C 407.476562 416.460938 408.207031 416.800781 408.984375 416.828125 C 408.988281 416.828125 408.992188 416.828125 408.992188 416.828125 L 421.433594 417.238281 C 423.027344 417.292969 424.359375 416.042969 424.414062 414.449219 C 424.46875 412.859375 423.222656 411.527344 421.632812 411.46875 Z M 447.257812 408.867188 C 447.253906 408.867188 447.25 408.867188 447.246094 408.867188 L 437.773438 408.945312 L 437.941406 400.644531 L 444.511719 400.554688 C 446.105469 400.53125 447.378906 399.222656 447.359375 397.625 C 447.335938 396.039062 446.039062 394.773438 444.457031 394.78125 C 444.449219 394.78125 444.4375 394.78125 444.429688 394.78125 L 438.0625 394.871094 L 438.136719 391.074219 L 446.621094 391.03125 C 448.214844 391.023438 449.503906 389.722656 449.496094 388.128906 C 449.484375 386.535156 448.1875 385.25 446.59375 385.257812 L 435.292969 385.3125 C 433.730469 385.320312 432.453125 386.574219 432.421875 388.140625 L 431.9375 411.800781 C 431.921875 412.578125 432.222656 413.332031 432.773438 413.886719 C 433.316406 414.441406 434.0625 414.75 434.839844 414.746094 C 434.84375 414.746094 434.847656 414.746094 434.847656 414.746094 L 447.292969 414.640625 C 448.890625 414.628906 450.171875 413.324219 450.160156 411.730469 C 450.144531 410.136719 448.847656 408.859375 447.257812 408.867188 Z M 466.5625 388.902344 C 469.066406 388.886719 469.121094 393.722656 469.121094 393.769531 C 469.128906 395.363281 470.429688 396.648438 472.023438 396.640625 C 473.617188 396.632812 474.902344 395.335938 474.894531 393.742188 C 474.871094 388.4375 472.273438 383.097656 466.53125 383.128906 C 460.976562 383.15625 457.113281 387.488281 457.144531 393.660156 C 457.171875 399.019531 461.457031 401.0625 464.582031 402.554688 C 467.789062 404.085938 468.726562 404.761719 468.734375 406.269531 C 468.746094 408.863281 465.84375 408.90625 465.722656 408.90625 C 464.941406 408.910156 464.21875 408.679688 463.746094 408.269531 C 463.238281 407.832031 462.988281 407.1875 462.984375 406.296875 C 462.976562 404.703125 461.675781 403.417969 460.082031 403.425781 C 458.488281 403.433594 457.199219 404.730469 457.210938 406.324219 C 457.222656 408.878906 458.207031 411.125 459.980469 412.648438 C 461.519531 413.96875 463.570312 414.691406 465.753906 414.679688 C 470.015625 414.660156 474.535156 411.695312 474.507812 406.238281 C 474.480469 400.882812 470.199219 398.835938 467.070312 397.34375 C 463.863281 395.8125 462.925781 395.140625 462.917969 393.632812 C 462.914062 392.214844 463.253906 388.917969 466.5625 388.902344 Z M 491.503906 389.820312 C 494.007812 389.917969 493.847656 394.75 493.84375 394.796875 C 493.78125 396.390625 495.019531 397.734375 496.613281 397.796875 C 498.207031 397.859375 499.550781 396.621094 499.613281 395.027344 C 499.824219 389.726562 497.472656 384.277344 491.734375 384.050781 C 486.183594 383.828125 482.132812 387.984375 481.886719 394.152344 C 481.671875 399.503906 485.859375 401.738281 488.917969 403.371094 C 492.054688 405.042969 492.957031 405.757812 492.898438 407.265625 C 492.792969 409.859375 489.894531 409.773438 489.773438 409.765625 C 488.992188 409.734375 488.28125 409.472656 487.824219 409.042969 C 487.335938 408.582031 487.117188 407.925781 487.152344 407.039062 C 487.214844 405.445312 485.976562 404.101562 484.382812 404.039062 C 482.789062 403.976562 481.445312 405.214844 481.382812 406.808594 C 481.28125 409.355469 482.164062 411.644531 483.867188 413.246094 C 485.347656 414.636719 487.363281 415.449219 489.542969 415.535156 C 493.804688 415.707031 498.449219 412.945312 498.667969 407.496094 C 498.878906 402.140625 494.691406 399.90625 491.636719 398.277344 C 488.5 396.601562 487.597656 395.886719 487.65625 394.382812 C 487.710938 392.964844 488.199219 389.6875 491.503906 389.820312 Z M 555.902344 391.109375 C 554.382812 390.957031 552.878906 392.050781 552.691406 393.632812 L 550.703125 410.199219 L 541.195312 392.203125 C 540.605469 391.089844 539.371094 390.484375 538.125 390.710938 C 536.886719 390.9375 535.9375 391.9375 535.777344 393.1875 L 532.703125 417.308594 C 532.503906 418.890625 533.625 420.335938 535.203125 420.535156 C 536.757812 420.757812 538.230469 419.617188 538.433594 418.035156 L 540.351562 402.96875 L 549.917969 421.070312 C 550.375 421.9375 551.234375 422.496094 552.175781 422.59375 C 552.445312 422.621094 552.71875 422.609375 552.996094 422.558594 C 554.234375 422.328125 555.183594 421.316406 555.335938 420.0625 L 558.425781 394.320312 C 558.613281 392.738281 557.484375 391.300781 555.902344 391.109375 Z M 555.902344 391.109375 " fill-opacity="1" fill-rule="nonzero"/></svg>