<svg xmlns="http://www.w3.org/2000/svg" xmlns:xlink="http://www.w3.org/1999/xlink" width="1080" zoomAndPan="magnify" viewBox="0 0 810 809.999993" height="1080" preserveAspectRatio="xMidYMid meet" version="1.0"><defs><clipPath id="id1"><path d="M 11.972656 11.972656 L 797.972656 11.972656 L 797.972656 797.972656 L 11.972656 797.972656 Z M 11.972656 11.972656 " clip-rule="nonzero"/></clipPath><clipPath id="id2"><path d="M 234 204 L 579 204 L 579 615.847656 L 234 615.847656 Z M 234 204 " clip-rule="nonzero"/></clipPath><clipPath id="id3"><path d="M 489 205 L 590.148438 205 L 590.148438 334 L 489 334 Z M 489 205 " clip-rule="nonzero"/></clipPath></defs><g clip-path="url(#id1)"><path fill="#262627" d="M 404.972656 11.972656 C 187.925781 11.972656 11.972656 187.925781 11.972656 404.972656 C 11.972656 622.019531 187.925781 797.972656 404.972656 797.972656 C 622.019531 797.972656 797.972656 622.019531 797.972656 404.972656 C 797.972656 187.925781 622.019531 11.972656 404.972656 11.972656 " fill-opacity="1" fill-rule="nonzero"/></g><g clip-path="url(#id2)"><path fill="#ffffff" d="M 545.410156 514.453125 C 544.53125 516.207031 542.375 520.117188 536.710938 520.117188 L 274.960938 520.117188 C 269.332031 520.117188 267.140625 516.207031 266.296875 514.453125 C 265.421875 512.738281 264.105469 508.425781 267.578125 504.078125 L 286.65625 480.65625 C 303.144531 460.304688 312.207031 434.765625 312.207031 408.347656 L 312.207031 365.011719 C 312.648438 313.457031 354.277344 271.441406 405.855469 271.441406 C 457.429688 271.441406 499.023438 313.457031 499.023438 364.574219 L 499.023438 408.347656 C 499.023438 434.765625 508.125 460.304688 524.574219 480.65625 L 543.65625 504.078125 C 547.566406 508.425781 546.25 512.738281 545.410156 514.453125 Z M 405.855469 584.644531 C 385.898438 584.644531 369.449219 569.917969 366.414062 550.847656 L 445.292969 550.847656 C 442.261719 569.917969 425.773438 584.644531 405.855469 584.644531 Z M 548.84375 461.183594 C 536.710938 446.457031 530.242188 427.824219 530.242188 408.75 L 530.242188 365.011719 C 530.242188 301.765625 482.539062 249.335938 421.460938 241.550781 L 421.460938 219.882812 C 421.460938 211.226562 414.515625 204.28125 405.855469 204.28125 C 397.191406 204.28125 390.246094 211.226562 390.246094 219.882812 L 390.246094 241.550781 C 329.132812 249.335938 281.46875 301.765625 281.46875 365.011719 L 281.46875 408.75 C 281.46875 427.824219 274.960938 446.457031 262.828125 461.183594 L 243.746094 484.601562 C 233.765625 496.734375 231.609375 513.613281 238.554688 527.898438 C 245.5 542.1875 259.355469 551.320312 275.398438 551.320312 L 335.199219 551.320312 C 338.671875 587.675781 369.007812 615.847656 406.257812 615.847656 C 443.539062 615.847656 473.878906 587.273438 477.351562 551.320312 L 537.148438 551.320312 C 553.195312 551.320312 567.046875 542.1875 573.992188 527.898438 C 580.9375 513.613281 578.78125 497.136719 568.804688 484.601562 L 548.84375 461.183594 " fill-opacity="1" fill-rule="nonzero"/></g><path fill="#ffffff" d="M 251.96875 322.117188 C 261.949219 286.164062 284.5 254.960938 315.277344 233.292969 C 322.1875 228.542969 323.941406 218.570312 319.152344 211.625 C 314.402344 204.722656 304.421875 202.96875 297.476562 207.753906 C 261.070312 233.292969 234.207031 271 222.070312 313.898438 C 219.914062 322.117188 224.667969 330.777344 232.925781 332.96875 C 234.207031 333.371094 235.523438 333.371094 237.238281 333.371094 C 243.746094 333.808594 250.253906 329.058594 251.96875 322.117188 " fill-opacity="1" fill-rule="nonzero"/><g clip-path="url(#id3)"><path fill="#ffffff" d="M 589.601562 313.898438 C 577.464844 271 550.601562 233.292969 514.195312 207.753906 C 507.25 202.96875 497.269531 204.722656 492.519531 211.625 C 487.765625 218.570312 489.484375 228.542969 496.429688 233.292969 C 527.207031 254.523438 549.722656 286.164062 559.703125 322.117188 C 561.417969 329.058594 567.925781 333.371094 574.871094 333.371094 C 576.148438 333.371094 577.464844 333.371094 579.183594 332.96875 C 587.003906 330.777344 591.757812 322.117188 589.601562 313.898438 " fill-opacity="1" fill-rule="nonzero"/></g></svg>