<svg xmlns="http://www.w3.org/2000/svg" xmlns:xlink="http://www.w3.org/1999/xlink" width="1080" zoomAndPan="magnify" viewBox="0 0 810 809.999993" height="1080" preserveAspectRatio="xMidYMid meet" version="1.0"><defs><clipPath id="id1"><path d="M 8.773438 8.773438 L 798.523438 8.773438 L 798.523438 798.523438 L 8.773438 798.523438 Z M 8.773438 8.773438 " clip-rule="nonzero"/></clipPath></defs><g clip-path="url(#id1)"><path fill="#262627" d="M 719.546875 8.773438 L 87.746094 8.773438 C 44.3125 8.773438 8.773438 44.3125 8.773438 87.746094 L 8.773438 719.546875 C 8.773438 762.984375 44.3125 798.523438 87.746094 798.523438 L 719.546875 798.523438 C 762.984375 798.523438 798.523438 762.984375 798.523438 719.546875 L 798.523438 87.746094 C 798.523438 44.3125 762.984375 8.773438 719.546875 8.773438 Z M 403.648438 166.722656 C 470.777344 166.722656 522.109375 218.054688 522.109375 285.183594 C 522.109375 352.3125 470.777344 403.648438 403.648438 403.648438 C 336.519531 403.648438 285.183594 352.3125 285.183594 285.183594 C 285.183594 218.054688 336.519531 166.722656 403.648438 166.722656 Z M 640.570312 640.570312 L 166.722656 640.570312 L 166.722656 589.238281 C 166.722656 569.496094 174.621094 553.699219 190.414062 541.851562 C 222.003906 518.160156 289.132812 482.621094 403.648438 482.621094 C 518.160156 482.621094 585.289062 518.160156 616.878906 537.90625 C 632.675781 549.75 640.570312 565.546875 640.570312 585.289062 Z M 640.570312 640.570312 " fill-opacity="1" fill-rule="nonzero"/></g></svg>