<svg xmlns="http://www.w3.org/2000/svg" xmlns:xlink="http://www.w3.org/1999/xlink" width="1080" zoomAndPan="magnify" viewBox="0 0 810 809.999993" height="1080" preserveAspectRatio="xMidYMid meet" version="1.0"><path fill="#262627" d="M 405 0 C 181.339844 0 0 181.339844 0 405 C 0 628.660156 181.339844 810 405 810 C 628.660156 810 810 628.660156 810 405 C 810 181.339844 628.660156 0 405 0 Z M 618.871094 590.9375 L 586.441406 623.371094 C 580.65625 629.152344 563.699219 632.761719 563.152344 632.761719 C 460.570312 633.652344 361.792969 593.363281 289.214844 520.785156 C 216.441406 447.964844 176.101562 348.835938 177.1875 245.90625 C 177.1875 245.859375 180.894531 229.394531 186.679688 223.660156 L 219.109375 191.226562 C 230.976562 179.3125 253.765625 173.921875 269.734375 179.261719 L 276.558594 181.539062 C 292.480469 186.878906 309.1875 204.476562 313.589844 220.691406 L 329.902344 280.5625 C 334.304688 296.828125 328.371094 319.964844 316.507812 331.832031 L 294.851562 353.484375 C 316.109375 432.191406 377.859375 493.941406 456.566406 515.25 L 478.21875 493.59375 C 490.132812 481.679688 513.269531 475.746094 529.484375 480.144531 L 589.355469 496.511719 C 605.570312 500.960938 623.171875 517.574219 628.511719 533.492188 L 630.785156 540.414062 C 636.078125 556.332031 630.738281 579.125 618.871094 590.9375 Z M 618.871094 590.9375 " fill-opacity="1" fill-rule="nonzero"/></svg>