<svg xmlns="http://www.w3.org/2000/svg" xmlns:xlink="http://www.w3.org/1999/xlink" width="1080" zoomAndPan="magnify" viewBox="0 0 810 809.999993" height="1080" preserveAspectRatio="xMidYMid meet" version="1.0"><defs><clipPath id="id1"><path d="M 17.214844 78 L 788 78 L 788 728.6875 L 17.214844 728.6875 Z M 17.214844 78 " clip-rule="nonzero"/></clipPath></defs><g clip-path="url(#id1)"><path fill="#262627" d="M 787.058594 241.773438 C 786.011719 223.535156 792.703125 203.144531 780.582031 187.277344 C 759.351562 181.429688 738.175781 175.515625 716.875 170.292969 C 715.757812 143.917969 717.84375 117.460938 715.90625 91.15625 C 712.839844 73.203125 690.980469 79.460938 678.300781 79.324219 C 568.421875 84.816406 467.179688 146.972656 402.558594 234.316406 C 333.058594 139.667969 219.148438 74.445312 99.863281 79.3125 C 97.492188 81.328125 92.691406 85.363281 90.25 87.382812 C 86.625 114.738281 90.042969 142.652344 88.574219 170.214844 C 64.421875 179.960938 28.710938 178.433594 17.214844 206.277344 C 21.742188 217.277344 22.792969 229.175781 22.300781 241.007812 C 21.253906 380.625 23.269531 520.1875 21.320312 659.746094 C 19.507812 670.257812 21.457031 688.847656 36.566406 685.578125 C 85.382812 667.828125 137.949219 661.421875 189.75 664.421875 C 260.152344 669.914062 333.265625 686.417969 391.121094 728.59375 C 396.765625 728.59375 407.976562 728.59375 413.539062 728.660156 C 445.570312 704.085938 484.417969 690.726562 522.789062 679.660156 C 605.027344 656.625 693.808594 658.777344 774.640625 686.410156 C 791.90625 683.492188 787.242188 664.558594 787.390625 652.019531 C 786.648438 515.320312 787.277344 378.539062 787.058594 241.773438 Z M 51.6875 647.769531 C 52.109375 503.613281 51.617188 359.390625 51.890625 215.25 C 64.21875 210.859375 76.613281 206.484375 89.007812 202.164062 C 88.734375 317.285156 88.800781 432.421875 88.9375 547.542969 C 87.34375 568.492188 113.523438 564.800781 127.171875 566.121094 C 208.644531 569.53125 282.796875 610.953125 341.988281 664.75 C 250.617188 627.867188 146.589844 619.511719 51.6875 647.769531 Z M 449.414062 672.136719 C 494.601562 627.933594 546.691406 588.269531 608.59375 571.207031 C 640.488281 560.410156 674.253906 559.375 707.398438 556.238281 C 718.117188 554.917969 715.894531 541.558594 716.660156 534.035156 C 716.589844 423.917969 716.523438 313.808594 716.589844 203.691406 C 729.886719 207.726562 743.195312 211.761719 756.558594 215.660156 C 758.4375 359.8125 756.625 504.035156 757.457031 648.179688 C 656.15625 620.136719 545.515625 630.15625 449.414062 672.136719 Z M 449.414062 672.136719 " fill-opacity="1" fill-rule="nonzero"/></g></svg>